<svg id="visual" viewBox="0 0 900 600" width="900" height="600" xmlns="http://www.w3.org/2000/svg" xmlns:xlink="http://www.w3.org/1999/xlink" version="1.1"><g stroke-width="1" stroke-linejoin="bevel"><path d="M486.9 300L481.9 228L409.1 300Z" fill="#e0e0e0" stroke="#e0e0e0"></path><path d="M481.9 228L402.1 230L409.1 300Z" fill="#e4e4e4" stroke="#e4e4e4"></path><path d="M402.1 230L336.3 286L409.1 300Z" fill="#f1f1f1" stroke="#f1f1f1"></path><path d="M581.7 227L490.9 160L481.9 228Z" fill="#eeeeee" stroke="#eeeeee"></path><path d="M481.9 228L490.9 160L402.1 230Z" fill="#eaeaea" stroke="#eaeaea"></path><path d="M322.3 363L414.1 379L409.1 300Z" fill="#e0e0e0" stroke="#e0e0e0"></path><path d="M409.1 300L414.1 379L486.9 300Z" fill="#e6e6e6" stroke="#e6e6e6"></path><path d="M491.9 391L566.7 311L486.9 300Z" fill="#f3f3f3" stroke="#f3f3f3"></path><path d="M486.9 300L581.7 227L481.9 228Z" fill="#f3f3f3" stroke="#f3f3f3"></path><path d="M399.1 146L329.3 215L402.1 230Z" fill="#eaeaea" stroke="#eaeaea"></path><path d="M402.1 230L329.3 215L336.3 286Z" fill="#eaeaea" stroke="#eaeaea"></path><path d="M490.9 160L399.1 146L402.1 230Z" fill="#e8e8e8" stroke="#e8e8e8"></path><path d="M414.1 379L491.9 391L486.9 300Z" fill="#eaeaea" stroke="#eaeaea"></path><path d="M566.7 311L581.7 227L486.9 300Z" fill="#f1f1f1" stroke="#f1f1f1"></path><path d="M261.5 306L322.3 363L336.3 286Z" fill="#e0e0e0" stroke="#e0e0e0"></path><path d="M336.3 286L322.3 363L409.1 300Z" fill="#ececec" stroke="#ececec"></path><path d="M399.1 146L329.3 160L329.3 215Z" fill="#f1f1f1" stroke="#f1f1f1"></path><path d="M236.5 241L261.5 306L336.3 286Z" fill="#e6e6e6" stroke="#e6e6e6"></path><path d="M491.9 391L581.7 380L566.7 311Z" fill="#e0e0e0" stroke="#e0e0e0"></path><path d="M566.7 311L651.5 283L581.7 227Z" fill="#e6e6e6" stroke="#e6e6e6"></path><path d="M322.3 363L395.1 434L414.1 379Z" fill="#e6e6e6" stroke="#e6e6e6"></path><path d="M414.1 379L395.1 434L491.9 391Z" fill="#e0e0e0" stroke="#e0e0e0"></path><path d="M491.9 391L502.9 437L581.7 380Z" fill="#ececec" stroke="#ececec"></path><path d="M581.7 227L579.7 146L490.9 160Z" fill="#eeeeee" stroke="#eeeeee"></path><path d="M490.9 160L473.9 83L399.1 146Z" fill="#e4e4e4" stroke="#e4e4e4"></path><path d="M395.1 434L502.9 437L491.9 391Z" fill="#e2e2e2" stroke="#e2e2e2"></path><path d="M581.7 89L473.9 83L490.9 160Z" fill="#eeeeee" stroke="#eeeeee"></path><path d="M399.1 146L318.3 90L329.3 160Z" fill="#e6e6e6" stroke="#e6e6e6"></path><path d="M236.5 241L336.3 286L329.3 215Z" fill="#eaeaea" stroke="#eaeaea"></path><path d="M322.3 363L326.3 458L395.1 434Z" fill="#f1f1f1" stroke="#f1f1f1"></path><path d="M473.9 83L396.1 76L399.1 146Z" fill="#eeeeee" stroke="#eeeeee"></path><path d="M644.5 367L651.5 283L566.7 311Z" fill="#f3f3f3" stroke="#f3f3f3"></path><path d="M581.7 227L638.5 163L579.7 146Z" fill="#f5f5f5" stroke="#f5f5f5"></path><path d="M232.5 142L329.3 215L329.3 160Z" fill="#ececec" stroke="#ececec"></path><path d="M232.5 142L236.5 241L329.3 215Z" fill="#f3f3f3" stroke="#f3f3f3"></path><path d="M665.5 210L638.5 163L581.7 227Z" fill="#e2e2e2" stroke="#e2e2e2"></path><path d="M579.7 146L581.7 89L490.9 160Z" fill="#e6e6e6" stroke="#e6e6e6"></path><path d="M396.1 76L318.3 90L399.1 146Z" fill="#e6e6e6" stroke="#e6e6e6"></path><path d="M646.5 442L644.5 367L581.7 380Z" fill="#eaeaea" stroke="#eaeaea"></path><path d="M581.7 380L644.5 367L566.7 311Z" fill="#e4e4e4" stroke="#e4e4e4"></path><path d="M638.5 163L581.7 89L579.7 146Z" fill="#e2e2e2" stroke="#e2e2e2"></path><path d="M473.9 83L404.1 0L396.1 76Z" fill="#e4e4e4" stroke="#e4e4e4"></path><path d="M651.5 283L665.5 210L581.7 227Z" fill="#eeeeee" stroke="#eeeeee"></path><path d="M721.4 142L665.5 210L751.4 225Z" fill="#eeeeee" stroke="#eeeeee"></path><path d="M169.6 378L254.5 381L261.5 306Z" fill="#e6e6e6" stroke="#e6e6e6"></path><path d="M261.5 306L254.5 381L322.3 363Z" fill="#e8e8e8" stroke="#e8e8e8"></path><path d="M254.5 381L326.3 458L322.3 363Z" fill="#eaeaea" stroke="#eaeaea"></path><path d="M395.1 434L419.1 519L502.9 437Z" fill="#e8e8e8" stroke="#e8e8e8"></path><path d="M572.7 533L585.7 452L502.9 437Z" fill="#e0e0e0" stroke="#e0e0e0"></path><path d="M502.9 437L585.7 452L581.7 380Z" fill="#e8e8e8" stroke="#e8e8e8"></path><path d="M260.5 91L232.5 142L329.3 160Z" fill="#e0e0e0" stroke="#e0e0e0"></path><path d="M326.3 458L419.1 519L395.1 434Z" fill="#eeeeee" stroke="#eeeeee"></path><path d="M320.3 0L260.5 91L318.3 90Z" fill="#f3f3f3" stroke="#f3f3f3"></path><path d="M318.3 90L260.5 91L329.3 160Z" fill="#eaeaea" stroke="#eaeaea"></path><path d="M585.7 452L646.5 442L581.7 380Z" fill="#f3f3f3" stroke="#f3f3f3"></path><path d="M751.4 225L665.5 210L651.5 283Z" fill="#e8e8e8" stroke="#e8e8e8"></path><path d="M643.5 525L646.5 442L585.7 452Z" fill="#f1f1f1" stroke="#f1f1f1"></path><path d="M419.1 519L488.9 531L502.9 437Z" fill="#f1f1f1" stroke="#f1f1f1"></path><path d="M254.5 381L259.5 458L326.3 458Z" fill="#f3f3f3" stroke="#f3f3f3"></path><path d="M326.3 458L322.3 508L419.1 519Z" fill="#eeeeee" stroke="#eeeeee"></path><path d="M166.6 457L259.5 458L254.5 381Z" fill="#eeeeee" stroke="#eeeeee"></path><path d="M506.9 0L404.1 0L473.9 83Z" fill="#f1f1f1" stroke="#f1f1f1"></path><path d="M396.1 76L320.3 0L318.3 90Z" fill="#eeeeee" stroke="#eeeeee"></path><path d="M259.5 458L322.3 508L326.3 458Z" fill="#eeeeee" stroke="#eeeeee"></path><path d="M419.1 519L418.1 600L488.9 531Z" fill="#ececec" stroke="#ececec"></path><path d="M581.7 89L506.9 0L473.9 83Z" fill="#ececec" stroke="#ececec"></path><path d="M721.4 142L657.5 72L638.5 163Z" fill="#e2e2e2" stroke="#e2e2e2"></path><path d="M638.5 163L657.5 72L581.7 89Z" fill="#e0e0e0" stroke="#e0e0e0"></path><path d="M581.7 89L577.7 0L506.9 0Z" fill="#f1f1f1" stroke="#f1f1f1"></path><path d="M232.5 142L163.6 232L236.5 241Z" fill="#e4e4e4" stroke="#e4e4e4"></path><path d="M236.5 241L153.6 308L261.5 306Z" fill="#f1f1f1" stroke="#f1f1f1"></path><path d="M156.6 155L163.6 232L232.5 142Z" fill="#e6e6e6" stroke="#e6e6e6"></path><path d="M488.9 531L572.7 533L502.9 437Z" fill="#ececec" stroke="#ececec"></path><path d="M404.1 0L320.3 0L396.1 76Z" fill="#f1f1f1" stroke="#f1f1f1"></path><path d="M150.6 62L156.6 155L232.5 142Z" fill="#e6e6e6" stroke="#e6e6e6"></path><path d="M640.5 0L577.7 0L581.7 89Z" fill="#f3f3f3" stroke="#f3f3f3"></path><path d="M163.6 232L153.6 308L236.5 241Z" fill="#ececec" stroke="#ececec"></path><path d="M153.6 308L169.6 378L261.5 306Z" fill="#e8e8e8" stroke="#e8e8e8"></path><path d="M665.5 210L721.4 142L638.5 163Z" fill="#eaeaea" stroke="#eaeaea"></path><path d="M749.4 294L651.5 283L644.5 367Z" fill="#ececec" stroke="#ececec"></path><path d="M749.4 384L749.4 294L644.5 367Z" fill="#e6e6e6" stroke="#e6e6e6"></path><path d="M749.4 294L751.4 225L651.5 283Z" fill="#e4e4e4" stroke="#e4e4e4"></path><path d="M150.6 62L232.5 142L260.5 91Z" fill="#e0e0e0" stroke="#e0e0e0"></path><path d="M65.8 305L85.8 378L153.6 308Z" fill="#f1f1f1" stroke="#f1f1f1"></path><path d="M166.6 457L238.5 511L259.5 458Z" fill="#e6e6e6" stroke="#e6e6e6"></path><path d="M259.5 458L238.5 511L322.3 508Z" fill="#e4e4e4" stroke="#e4e4e4"></path><path d="M333.3 600L418.1 600L419.1 519Z" fill="#eeeeee" stroke="#eeeeee"></path><path d="M730.4 442L644.5 367L646.5 442Z" fill="#e0e0e0" stroke="#e0e0e0"></path><path d="M730.4 442L749.4 384L644.5 367Z" fill="#eeeeee" stroke="#eeeeee"></path><path d="M834.2 229L803.2 139L751.4 225Z" fill="#eaeaea" stroke="#eaeaea"></path><path d="M572.7 533L643.5 525L585.7 452Z" fill="#f1f1f1" stroke="#f1f1f1"></path><path d="M657.5 72L640.5 0L581.7 89Z" fill="#e0e0e0" stroke="#e0e0e0"></path><path d="M720.4 0L640.5 0L657.5 72Z" fill="#e6e6e6" stroke="#e6e6e6"></path><path d="M643.5 525L730.4 442L646.5 442Z" fill="#ececec" stroke="#ececec"></path><path d="M333.3 600L419.1 519L322.3 508Z" fill="#e4e4e4" stroke="#e4e4e4"></path><path d="M488.9 531L494.9 600L572.7 533Z" fill="#eaeaea" stroke="#eaeaea"></path><path d="M572.7 533L654.5 600L643.5 525Z" fill="#e2e2e2" stroke="#e2e2e2"></path><path d="M418.1 600L494.9 600L488.9 531Z" fill="#f1f1f1" stroke="#f1f1f1"></path><path d="M320.3 0L240.5 0L260.5 91Z" fill="#eaeaea" stroke="#eaeaea"></path><path d="M169.6 378L166.6 457L254.5 381Z" fill="#e4e4e4" stroke="#e4e4e4"></path><path d="M84.8 446L166.6 457L169.6 378Z" fill="#eaeaea" stroke="#eaeaea"></path><path d="M803.2 139L746.4 80L721.4 142Z" fill="#e4e4e4" stroke="#e4e4e4"></path><path d="M721.4 142L746.4 80L657.5 72Z" fill="#e8e8e8" stroke="#e8e8e8"></path><path d="M244.5 600L333.3 600L322.3 508Z" fill="#e0e0e0" stroke="#e0e0e0"></path><path d="M244.5 600L322.3 508L238.5 511Z" fill="#e4e4e4" stroke="#e4e4e4"></path><path d="M494.9 600L567.7 600L572.7 533Z" fill="#e0e0e0" stroke="#e0e0e0"></path><path d="M813.2 442L749.4 384L730.4 442Z" fill="#eaeaea" stroke="#eaeaea"></path><path d="M240.5 0L150.6 62L260.5 91Z" fill="#e8e8e8" stroke="#e8e8e8"></path><path d="M65.8 305L153.6 308L163.6 232Z" fill="#e4e4e4" stroke="#e4e4e4"></path><path d="M751.4 225L803.2 139L721.4 142Z" fill="#f5f5f5" stroke="#f5f5f5"></path><path d="M829.2 283L751.4 225L749.4 294Z" fill="#eeeeee" stroke="#eeeeee"></path><path d="M69.8 213L163.6 232L156.6 155Z" fill="#f5f5f5" stroke="#f5f5f5"></path><path d="M153.6 308L85.8 378L169.6 378Z" fill="#f1f1f1" stroke="#f1f1f1"></path><path d="M240.5 0L175.6 0L150.6 62Z" fill="#f5f5f5" stroke="#f5f5f5"></path><path d="M814.2 0L720.4 0L746.4 80Z" fill="#e2e2e2" stroke="#e2e2e2"></path><path d="M746.4 80L720.4 0L657.5 72Z" fill="#ececec" stroke="#ececec"></path><path d="M813.2 379L749.4 294L749.4 384Z" fill="#e6e6e6" stroke="#e6e6e6"></path><path d="M813.2 379L829.2 283L749.4 294Z" fill="#f1f1f1" stroke="#f1f1f1"></path><path d="M95.8 90L156.6 155L150.6 62Z" fill="#e8e8e8" stroke="#e8e8e8"></path><path d="M66.8 143L69.8 213L156.6 155Z" fill="#e2e2e2" stroke="#e2e2e2"></path><path d="M751.4 537L730.4 442L643.5 525Z" fill="#f1f1f1" stroke="#f1f1f1"></path><path d="M813.2 442L813.2 379L749.4 384Z" fill="#eaeaea" stroke="#eaeaea"></path><path d="M84.8 446L155.6 514L166.6 457Z" fill="#e6e6e6" stroke="#e6e6e6"></path><path d="M166.6 457L155.6 514L238.5 511Z" fill="#eeeeee" stroke="#eeeeee"></path><path d="M69.8 213L65.8 305L163.6 232Z" fill="#e6e6e6" stroke="#e6e6e6"></path><path d="M829.2 283L834.2 229L751.4 225Z" fill="#f3f3f3" stroke="#f3f3f3"></path><path d="M159.6 600L244.5 600L238.5 511Z" fill="#ececec" stroke="#ececec"></path><path d="M567.7 600L654.5 600L572.7 533Z" fill="#f1f1f1" stroke="#f1f1f1"></path><path d="M68.8 0L95.8 90L150.6 62Z" fill="#ececec" stroke="#ececec"></path><path d="M95.8 90L66.8 143L156.6 155Z" fill="#eeeeee" stroke="#eeeeee"></path><path d="M69.8 213L0 234L65.8 305Z" fill="#e2e2e2" stroke="#e2e2e2"></path><path d="M900 154L811.2 90L803.2 139Z" fill="#f1f1f1" stroke="#f1f1f1"></path><path d="M803.2 139L811.2 90L746.4 80Z" fill="#eaeaea" stroke="#eaeaea"></path><path d="M0 386L84.8 446L85.8 378Z" fill="#e2e2e2" stroke="#e2e2e2"></path><path d="M85.8 378L84.8 446L169.6 378Z" fill="#ececec" stroke="#ececec"></path><path d="M155.6 514L159.6 600L238.5 511Z" fill="#e6e6e6" stroke="#e6e6e6"></path><path d="M751.4 537L813.2 442L730.4 442Z" fill="#e6e6e6" stroke="#e6e6e6"></path><path d="M900 388L900 283L829.2 283Z" fill="#eeeeee" stroke="#eeeeee"></path><path d="M654.5 600L751.4 537L643.5 525Z" fill="#e4e4e4" stroke="#e4e4e4"></path><path d="M91.8 531L159.6 600L155.6 514Z" fill="#f1f1f1" stroke="#f1f1f1"></path><path d="M84.8 446L91.8 531L155.6 514Z" fill="#ececec" stroke="#ececec"></path><path d="M0 535L91.8 531L84.8 446Z" fill="#e4e4e4" stroke="#e4e4e4"></path><path d="M654.5 600L742.4 600L751.4 537Z" fill="#ececec" stroke="#ececec"></path><path d="M751.4 537L804.2 537L813.2 442Z" fill="#e4e4e4" stroke="#e4e4e4"></path><path d="M742.4 600L804.2 537L751.4 537Z" fill="#f5f5f5" stroke="#f5f5f5"></path><path d="M900 388L829.2 283L813.2 379Z" fill="#f1f1f1" stroke="#f1f1f1"></path><path d="M0 143L69.8 213L66.8 143Z" fill="#eaeaea" stroke="#eaeaea"></path><path d="M0 143L0 234L69.8 213Z" fill="#e8e8e8" stroke="#e8e8e8"></path><path d="M65.8 305L0 386L85.8 378Z" fill="#eeeeee" stroke="#eeeeee"></path><path d="M0 234L0 311L65.8 305Z" fill="#eaeaea" stroke="#eaeaea"></path><path d="M829.2 283L900 283L834.2 229Z" fill="#f1f1f1" stroke="#f1f1f1"></path><path d="M834.2 229L900 154L803.2 139Z" fill="#f3f3f3" stroke="#f3f3f3"></path><path d="M900 388L813.2 379L813.2 442Z" fill="#e6e6e6" stroke="#e6e6e6"></path><path d="M900 67L814.2 0L811.2 90Z" fill="#e8e8e8" stroke="#e8e8e8"></path><path d="M811.2 90L814.2 0L746.4 80Z" fill="#f1f1f1" stroke="#f1f1f1"></path><path d="M900 283L900 233L834.2 229Z" fill="#eeeeee" stroke="#eeeeee"></path><path d="M175.6 0L68.8 0L150.6 62Z" fill="#e6e6e6" stroke="#e6e6e6"></path><path d="M0 77L0 143L66.8 143Z" fill="#f5f5f5" stroke="#f5f5f5"></path><path d="M0 311L0 386L65.8 305Z" fill="#f5f5f5" stroke="#f5f5f5"></path><path d="M0 77L66.8 143L95.8 90Z" fill="#e6e6e6" stroke="#e6e6e6"></path><path d="M900 233L900 154L834.2 229Z" fill="#ececec" stroke="#ececec"></path><path d="M900 436L900 388L813.2 442Z" fill="#e0e0e0" stroke="#e0e0e0"></path><path d="M900 541L900 436L813.2 442Z" fill="#f3f3f3" stroke="#f3f3f3"></path><path d="M0 386L0 449L84.8 446Z" fill="#e0e0e0" stroke="#e0e0e0"></path><path d="M91.8 531L76.8 600L159.6 600Z" fill="#f1f1f1" stroke="#f1f1f1"></path><path d="M68.8 0L0 77L95.8 90Z" fill="#f1f1f1" stroke="#f1f1f1"></path><path d="M900 154L900 67L811.2 90Z" fill="#e8e8e8" stroke="#e8e8e8"></path><path d="M0 535L76.8 600L91.8 531Z" fill="#f3f3f3" stroke="#f3f3f3"></path><path d="M742.4 600L820.2 600L804.2 537Z" fill="#f5f5f5" stroke="#f5f5f5"></path><path d="M804.2 537L900 541L813.2 442Z" fill="#e6e6e6" stroke="#e6e6e6"></path><path d="M68.8 0L0 0L0 77Z" fill="#f1f1f1" stroke="#f1f1f1"></path><path d="M0 449L0 535L84.8 446Z" fill="#e4e4e4" stroke="#e4e4e4"></path><path d="M900 67L900 0L814.2 0Z" fill="#f3f3f3" stroke="#f3f3f3"></path><path d="M820.2 600L900 541L804.2 537Z" fill="#f3f3f3" stroke="#f3f3f3"></path><path d="M0 535L0 600L76.8 600Z" fill="#e4e4e4" stroke="#e4e4e4"></path><path d="M820.2 600L900 600L900 541Z" fill="#e6e6e6" stroke="#e6e6e6"></path></g></svg>